<svg width="40" height="40" viewBox="0 0 40 40" fill="none" xmlns="http://www.w3.org/2000/svg">
<g clip-path="url(#clip0_40_14)">
<path d="M7.5 29.3333H32.5C35.2575 29.3333 37.5 26.94 37.5 24V5.33333C37.5 2.39333 35.2575 0 32.5 0H7.5C4.7425 0 2.5 2.39333 2.5 5.33333V24C2.5 26.94 4.7425 29.3333 7.5 29.3333ZM7.5 5.33333H32.5L32.5038 24H7.5V5.33333Z" fill="white"/>
<path d="M0 32V37.3333C0 38.8048 1.1195 40 2.5 40H37.5C38.8805 40 40 38.8048 40 37.3333V32H0ZM25 37.3333H15V34.6667H25V37.3333Z" fill="white"/>
</g>
<defs>
<clipPath id="clip0_40_14">
<rect width="40" height="40" fill="white"/>
</clipPath>
</defs>
</svg>
