<svg width="226" height="60" viewBox="0 0 226 60" fill="none" xmlns="http://www.w3.org/2000/svg">
<g clip-path="url(#clip0_19_18)">
<path d="M59.9285 30C59.9285 46.5696 46.5144 60 29.9644 60C13.4159 60 0 46.5696 0 30C0 13.4315 13.4159 0 29.9644 0C46.5144 0 59.9285 13.4315 59.9285 30Z" fill="#2F65B0"/>
<path d="M29.9644 1.72769C14.393 1.72769 1.7254 14.41 1.7254 30C1.7254 45.5914 14.393 58.2726 29.9644 58.2726C45.5363 58.2726 58.203 45.5914 58.203 30C58.203 14.41 45.5363 1.72769 29.9644 1.72769ZM29.9644 56.5354C15.6176 56.5354 3.9405 45.1205 3.4815 30.8678H13.9402L14.1689 29.1309H3.4815C3.9405 14.8792 15.6176 3.46319 29.9644 3.46319C44.3117 3.46319 55.988 14.8792 56.4462 29.1309H46.9538C45.6971 29.1309 44.5914 29.9696 44.2511 31.1784L41.1564 42.1666C40.9875 42.7685 40.6169 43.2426 40.1444 43.4597C39.2726 43.8596 38.3108 43.2802 37.9973 42.1666L28.1968 7.35719C28.0218 6.73589 27.3741 6.37279 26.7516 6.54809C26.3613 6.65989 26.0539 6.96569 25.9433 7.35719L21.441 23.3517L21.2945 23.8696L20.6175 26.274L20.5362 26.5663L20.3907 27.0823C20.0495 28.2957 18.9447 29.1309 17.6879 29.1309H17.1119H16.7135C16.7055 29.2212 16.6993 29.3115 16.6993 29.4053C16.6993 29.502 16.7055 29.6004 16.7154 29.6942C16.7162 29.7192 16.7189 29.7442 16.7224 29.7667C16.7331 29.8597 16.7447 29.95 16.7635 30.0384C16.768 30.0618 16.7734 30.0822 16.7788 30.1056C16.793 30.169 16.8099 30.2333 16.8279 30.2959C16.8386 30.3335 16.851 30.3746 16.8644 30.4131C16.8797 30.4606 16.8985 30.5114 16.9162 30.5571C16.9438 30.6267 16.9726 30.6928 17.0037 30.7624C17.0171 30.7893 17.0305 30.8183 17.0448 30.8473C17.0485 30.8538 17.0528 30.8613 17.0566 30.8678H18.924C20.1888 30.8678 21.298 30.0215 21.6322 28.8001L22.0313 27.3416L22.1065 27.067L22.6887 24.9415L22.8315 24.4202L25.2395 15.6169C25.4352 14.9045 25.8736 14.3455 26.43 14.0977C27.4412 13.647 28.546 14.3267 28.8987 15.6169L38.4493 50.5071C38.6206 51.1317 39.2637 51.4982 39.8873 51.3262C40.2856 51.2187 40.5965 50.9059 40.7043 50.5071L45.514 32.9381C45.8482 31.7191 46.9581 30.8678 48.2211 30.8678H56.4462C55.988 45.1205 44.3117 56.5354 29.9644 56.5354Z" fill="white"/>
<path d="M29.4052 25.2635C29.3258 25.4218 29.2302 25.5728 29.1228 25.7134C28.178 26.9455 26.4158 27.1761 25.185 26.231L22.8709 24.4524L22.8315 24.4202L22.6887 24.9415L22.1065 27.067C22.1196 27.0788 22.1341 27.0896 22.1465 27.1019C22.1465 27.1019 22.1475 27.1027 22.1483 27.1038C22.2216 27.1761 22.293 27.2513 22.3599 27.3325C22.427 27.4104 22.4914 27.4935 22.5502 27.5803C22.6084 27.6663 22.661 27.7512 22.711 27.8388C22.7128 27.8431 22.7155 27.8458 22.7171 27.8496C22.7646 27.9334 22.8057 28.0194 22.8441 28.1062C22.8476 28.117 22.854 28.1258 22.8575 28.1355C22.8932 28.2169 22.9228 28.3002 22.9512 28.3833C22.9566 28.4029 22.9638 28.4182 22.97 28.4351C22.9933 28.512 23.0121 28.5907 23.0317 28.6695C23.0371 28.6964 23.046 28.7222 23.0513 28.7498C23.0664 28.8213 23.0755 28.8966 23.0852 28.9699C23.0905 29.0038 23.0978 29.0368 23.1023 29.0737C23.1104 29.1524 23.112 29.2319 23.1139 29.3134C23.1147 29.3445 23.1182 29.3733 23.1182 29.4053C23.1182 30.9559 22.0187 32.2512 20.5558 32.5522C20.5201 32.5597 20.4836 32.564 20.4468 32.5683C20.2718 32.5984 20.0922 32.6167 19.9091 32.6167C19.8109 32.6167 19.7126 32.6113 19.6171 32.6006C19.5921 32.6006 19.568 32.5984 19.543 32.5952C19.4536 32.5855 19.3669 32.5715 19.2805 32.5554C19.2724 32.5544 19.266 32.5522 19.2582 32.5522C19.1677 32.5329 19.0794 32.507 18.9938 32.4823C18.9651 32.4737 18.9393 32.4662 18.9125 32.4576C18.8411 32.4318 18.7713 32.4071 18.7034 32.3781C18.6838 32.3716 18.6661 32.3662 18.6481 32.3587C18.5713 32.3254 18.4953 32.2878 18.4212 32.2501C18.3898 32.234 18.3595 32.2136 18.3292 32.1975C18.2782 32.1695 18.2301 32.1405 18.181 32.1082C18.1407 32.0814 18.1005 32.0567 18.0613 32.0298C18.0114 31.9943 17.9622 31.9567 17.9131 31.9191C17.8782 31.889 17.8433 31.8578 17.8095 31.8298C17.7781 31.803 17.7486 31.7772 17.7193 31.7471C17.6576 31.6901 17.5977 31.631 17.5424 31.5665C17.521 31.545 17.4976 31.5224 17.4772 31.4955C17.4415 31.4557 17.4085 31.4149 17.3744 31.3698C17.3567 31.3472 17.3406 31.3257 17.3237 31.302C17.2574 31.2107 17.1959 31.1161 17.1395 31.0215C17.1342 31.0139 17.1288 31.0032 17.1245 30.9957C17.1226 30.9946 17.1226 30.9946 17.1218 30.9946C17.0993 30.9505 17.0778 30.9108 17.0566 30.8678C17.0528 30.8613 17.0485 30.8538 17.0448 30.8473C17.0305 30.8183 17.0171 30.7893 17.0037 30.7624C16.9726 30.6928 16.9438 30.6267 16.9162 30.5571C16.8985 30.5114 16.8797 30.4606 16.8644 30.4131C16.851 30.3746 16.8386 30.3335 16.8279 30.2959C16.8099 30.2333 16.793 30.169 16.7788 30.1056C16.7734 30.0822 16.768 30.0618 16.7635 30.0384C16.7447 29.95 16.7331 29.8597 16.7224 29.7667C16.7189 29.7442 16.7162 29.7192 16.7154 29.6942C16.7055 29.6004 16.6993 29.502 16.6993 29.4053C16.6993 29.3115 16.7055 29.2212 16.7135 29.1309C16.7154 29.1129 16.7154 29.0941 16.7162 29.0771C16.717 29.0664 16.7197 29.0549 16.7216 29.0433C16.7312 28.9492 16.7447 28.8581 16.7635 28.7678C16.7707 28.7294 16.7822 28.6926 16.7895 28.6568C16.8064 28.5926 16.8198 28.53 16.8386 28.4682C16.851 28.4263 16.8671 28.3878 16.8805 28.3456C16.9012 28.2911 16.9181 28.2349 16.9412 28.1804C16.9591 28.1382 16.9795 28.099 16.9975 28.0586C17.0209 28.0068 17.0448 27.956 17.0708 27.9076C17.0912 27.8665 17.1146 27.8281 17.1376 27.7878C17.1656 27.7404 17.194 27.6929 17.2227 27.6483C17.2485 27.609 17.2753 27.5722 17.3022 27.5346C17.3333 27.4911 17.3655 27.447 17.3986 27.4051C17.4281 27.3685 17.4576 27.3336 17.4879 27.2995C17.5228 27.2594 17.5593 27.2191 17.5958 27.1799C17.6281 27.1465 17.6603 27.1154 17.6933 27.0823C17.7325 27.0455 17.7719 27.0089 17.8138 26.974C17.8487 26.9436 17.8825 26.9141 17.9185 26.8837C17.9622 26.8525 18.0049 26.8203 18.0498 26.788C18.0863 26.7612 18.1238 26.7354 18.1622 26.7112C18.2079 26.6808 18.2559 26.6513 18.3023 26.6236C18.3426 26.6021 18.381 26.5798 18.4212 26.5575C18.4712 26.5322 18.5222 26.5083 18.5729 26.486C18.6143 26.4661 18.6534 26.4473 18.6945 26.4304C18.749 26.4081 18.8035 26.3892 18.8588 26.3704C18.8999 26.3562 18.9401 26.3409 18.982 26.3274C19.041 26.3105 19.1017 26.2962 19.1616 26.282C19.2018 26.2721 19.2402 26.2613 19.2805 26.2533C19.3492 26.239 19.4179 26.231 19.4877 26.2202C19.5215 26.2167 19.5556 26.2095 19.5913 26.2068C19.6957 26.1952 19.802 26.1909 19.9091 26.1909C20.0111 26.1909 20.1094 26.1952 20.2084 26.2052C20.3032 26.214 20.395 26.2283 20.4863 26.2444C20.4897 26.2452 20.4916 26.2452 20.4951 26.2452V26.2463C20.537 26.2533 20.5764 26.264 20.6175 26.274L21.2945 23.8696L21.441 23.3517L21.3329 23.2703L16.5527 19.5945C14.5637 20.2765 12.8302 21.5482 11.5815 23.2399C11.7584 23.23 11.9353 23.2364 12.1111 23.2595C13.6481 23.4635 14.7307 24.8754 14.5272 26.4153L14.1769 29.0771L14.1689 29.1309L13.9402 30.8678L13.9232 30.9957L13.1035 37.2175C14.6869 38.602 16.6545 39.4695 18.7428 39.706C18.6454 39.5587 18.5625 39.4018 18.4945 39.2373C17.9005 37.8012 18.5836 36.1587 20.0154 35.5631L30.0723 31.3988C30.476 29.333 30.2446 27.1914 29.4052 25.2635Z" fill="#B3B3B3"/>
<path d="M85.266 34.385C85.266 36.0372 84.6719 37.34 83.4842 38.2914C82.2961 39.2427 80.6434 39.7178 78.5261 39.7178C76.5754 39.7178 74.85 39.3513 73.3495 38.616V35.0106C74.5829 35.5621 75.6271 35.9501 76.4818 36.1748C77.3362 36.4005 78.1176 36.5134 78.8262 36.5134C79.6765 36.5134 80.3286 36.3511 80.7833 36.0254C81.2374 35.6997 81.4645 35.217 81.4645 34.5731C81.4645 34.2151 81.3647 33.8948 81.1644 33.6164C80.9645 33.3358 80.6705 33.0671 80.2829 32.808C79.8953 32.55 79.1053 32.1373 77.9135 31.5686C76.7961 31.043 75.9583 30.5383 75.4003 30.0537C74.8414 29.57 74.3953 29.0065 74.0622 28.3636C73.7285 27.7216 73.5621 26.9705 73.5621 26.1103C73.5621 24.4919 74.1099 23.2184 75.2065 22.2921C76.3022 21.3657 77.8174 20.9024 79.7517 20.9024C80.7019 20.9024 81.6084 21.0153 82.4711 21.2405C83.3341 21.466 84.236 21.7833 85.1785 22.1921L83.9279 25.2089C82.9527 24.8083 82.1461 24.5293 81.5085 24.3702C80.8708 24.2119 80.2432 24.1324 79.6266 24.1324C78.8928 24.1324 78.3301 24.3041 77.9385 24.6457C77.5463 24.988 77.3509 25.4341 77.3509 25.9851C77.3509 26.3274 77.4298 26.6263 77.5885 26.8802C77.7466 27.135 77.9989 27.3809 78.3449 27.6187C78.6906 27.8566 79.5096 28.2849 80.8021 28.9019C82.5106 29.72 83.682 30.5402 84.3155 31.3622C84.9487 32.1846 85.266 33.1918 85.266 34.385Z" fill="#565655"/>
<path d="M101.209 26.874C101.209 28.8439 100.594 30.3504 99.3643 31.3934C98.1343 32.4372 96.386 32.9585 94.1187 32.9585H92.4557V39.4674H88.5794V21.1655H94.4188C96.6362 21.1655 98.322 21.6439 99.4767 22.599C100.631 23.5546 101.209 24.98 101.209 26.874ZM92.4557 29.7783H93.731C94.9232 29.7783 95.8148 29.5432 96.407 29.071C96.9989 28.5996 97.2949 27.913 97.2949 27.0116C97.2949 26.1022 97.0466 25.4306 96.5509 24.9961C96.0548 24.5624 95.2772 24.3452 94.2188 24.3452H92.4557V29.7783Z" fill="#565655"/>
<path d="M115.451 34.385C115.451 36.0372 114.856 37.34 113.669 38.2914C112.481 39.2427 110.828 39.7178 108.711 39.7178C106.76 39.7178 105.035 39.3513 103.534 38.616V35.0106C104.768 35.5621 105.812 35.9501 106.667 36.1748C107.521 36.4005 108.303 36.5134 109.011 36.5134C109.862 36.5134 110.513 36.3511 110.968 36.0254C111.422 35.6997 111.649 35.217 111.649 34.5731C111.649 34.2151 111.549 33.8948 111.349 33.6164C111.149 33.3358 110.855 33.0671 110.468 32.808C110.08 32.55 109.29 32.1373 108.098 31.5686C106.981 31.043 106.143 30.5383 105.585 30.0537C105.026 29.57 104.58 29.0065 104.247 28.3636C103.913 27.7216 103.747 26.9705 103.747 26.1103C103.747 24.4919 104.295 23.2184 105.391 22.2921C106.487 21.3657 108.002 20.9024 109.936 20.9024C110.887 20.9024 111.793 21.0153 112.656 21.2405C113.519 21.466 114.421 21.7833 115.363 22.1921L114.113 25.2089C113.137 24.8083 112.331 24.5293 111.693 24.3702C111.055 24.2119 110.428 24.1324 109.811 24.1324C109.078 24.1324 108.515 24.3041 108.123 24.6457C107.731 24.988 107.536 25.4341 107.536 25.9851C107.536 26.3274 107.615 26.6263 107.773 26.8802C107.931 27.135 108.184 27.3809 108.53 27.6187C108.875 27.8566 109.694 28.2849 110.987 28.9019C112.695 29.72 113.867 30.5402 114.501 31.3622C115.133 32.1846 115.451 33.1918 115.451 34.385ZM115.276 15.5946V15.9326C114.576 16.6338 113.932 17.333 113.344 18.0296C112.756 18.727 112.333 19.2841 112.075 19.7009H107.611C107.369 19.3091 107.023 18.8396 106.573 18.2924C106.123 17.7461 105.401 16.9592 104.41 15.9326V15.5946H106.948C108.173 16.3707 109.128 17.106 109.811 17.798C110.512 17.0718 111.487 16.3376 112.737 15.5946H115.276Z" fill="#565655"/>
<path d="M129.556 34.385C129.556 36.0372 128.961 37.34 127.773 38.2914C126.585 39.2427 124.933 39.7178 122.816 39.7178C120.866 39.7178 119.14 39.3513 117.64 38.616V35.0106C118.872 35.5621 119.917 35.9501 120.771 36.1748C121.625 36.4005 122.407 36.5134 123.116 36.5134C123.967 36.5134 124.618 36.3511 125.072 36.0254C125.527 35.6997 125.755 35.217 125.755 34.5731C125.755 34.2151 125.654 33.8948 125.455 33.6164C125.254 33.3358 124.96 33.0671 124.572 32.808C124.184 32.55 123.395 32.1373 122.203 31.5686C121.085 31.043 120.247 30.5383 119.69 30.0537C119.131 29.57 118.684 29.0065 118.352 28.3636C118.018 27.7216 117.852 26.9705 117.852 26.1103C117.852 24.4919 118.399 23.2184 119.496 22.2921C120.592 21.3657 122.107 20.9024 124.042 20.9024C124.992 20.9024 125.898 21.0153 126.76 21.2405C127.623 21.466 128.525 21.7833 129.468 22.1921L128.218 25.2089C127.242 24.8083 126.435 24.5293 125.798 24.3702C125.16 24.2119 124.533 24.1324 123.917 24.1324C123.182 24.1324 122.62 24.3041 122.228 24.6457C121.835 24.988 121.641 25.4341 121.641 25.9851C121.641 26.3274 121.719 26.6263 121.878 26.8802C122.035 27.135 122.288 27.3809 122.634 27.6187C122.98 27.8566 123.798 28.2849 125.092 28.9019C126.799 29.72 127.971 30.5402 128.605 31.3622C129.238 32.1846 129.556 33.1918 129.556 34.385Z" fill="#565655"/>
<path d="M143.398 39.4674H132.87V21.1655H143.398V24.3452H136.746V28.3636H142.935V31.5439H136.746V36.2629H143.398V39.4674Z" fill="#565655"/>
<path d="M165.055 39.4674L163.73 35.1117H157.065L155.74 39.4674H151.563L158.015 21.0903H162.754L169.231 39.4674H165.055ZM162.805 31.8567C161.579 27.9095 160.889 25.6765 160.734 25.159C160.58 24.6419 160.47 24.2323 160.404 23.9319C160.128 25.0007 159.341 27.6421 158.04 31.8567H162.805Z" fill="#565655"/>
<path d="M188.613 21.1655H192.527L186.312 39.4674H182.085L175.883 21.1655H179.798L183.236 32.0567C183.427 32.7005 183.625 33.4487 183.829 34.3044C184.034 35.159 184.161 35.7545 184.212 36.0877C184.302 35.3202 184.615 33.9776 185.149 32.0567L188.613 21.1655Z" fill="#565655"/>
<path d="M211.42 30.2916C211.42 33.3208 210.67 35.6491 209.17 37.2766C207.669 38.9041 205.518 39.7178 202.717 39.7178C199.917 39.7178 197.766 38.9041 196.265 37.2766C194.765 35.6491 194.014 33.3143 194.014 30.2666C194.014 27.221 194.766 24.8943 196.271 23.2875C197.776 21.6815 199.933 20.8774 202.742 20.8774C205.55 20.8774 207.699 21.6877 209.187 23.306C210.676 24.9254 211.42 27.254 211.42 30.2916ZM198.078 30.2916C198.078 32.3372 198.466 33.8776 199.241 34.9106C200.016 35.9469 201.174 36.4629 202.717 36.4629C205.81 36.4629 207.356 34.4065 207.356 30.2916C207.356 26.1694 205.818 24.1074 202.742 24.1074C201.199 24.1074 200.036 24.6269 199.253 25.6658C198.47 26.705 198.078 28.2473 198.078 30.2916Z" fill="#565655"/>
<path d="M226 34.385C226 36.0372 225.405 37.34 224.217 38.2914C223.03 39.2427 221.377 39.7178 219.26 39.7178C217.309 39.7178 215.584 39.3513 214.083 38.616V35.0106C215.316 35.5621 216.361 35.9501 217.215 36.1748C218.07 36.4005 218.851 36.5134 219.561 36.5134C220.411 36.5134 221.063 36.3511 221.516 36.0254C221.971 35.6997 222.199 35.217 222.199 34.5731C222.199 34.2151 222.099 33.8948 221.898 33.6164C221.699 33.3358 221.404 33.0671 221.016 32.808C220.629 32.55 219.839 32.1373 218.648 31.5686C217.529 31.043 216.691 30.5383 216.134 30.0537C215.575 29.57 215.129 29.0065 214.796 28.3636C214.463 27.7216 214.296 26.9705 214.296 26.1103C214.296 24.4919 214.844 23.2184 215.939 22.2921C217.036 21.3657 218.551 20.9024 220.486 20.9024C221.436 20.9024 222.342 21.0153 223.205 21.2405C224.067 21.466 224.969 21.7833 225.913 22.1921L224.662 25.2089C223.687 24.8083 222.879 24.5293 222.242 24.3702C221.604 24.2119 220.977 24.1324 220.361 24.1324C219.627 24.1324 219.064 24.3041 218.673 24.6457C218.28 24.988 218.085 25.4341 218.085 25.9851C218.085 26.3274 218.164 26.6263 218.322 26.8802C218.48 27.135 218.733 27.3809 219.078 27.6187C219.425 27.8566 220.243 28.2849 221.536 28.9019C223.244 29.72 224.416 30.5402 225.05 31.3622C225.682 32.1846 226 33.1918 226 34.385ZM225.825 15.5946V15.9326C225.125 16.6338 224.48 17.333 223.892 18.0296C223.305 18.727 222.881 19.2841 222.624 19.7009H218.16C217.917 19.3091 217.572 18.8396 217.122 18.2924C216.672 17.7461 215.95 16.9592 214.959 15.9326V15.5946H217.497C218.722 16.3707 219.676 17.106 220.361 17.798C221.061 17.0718 222.036 16.3376 223.287 15.5946H225.825Z" fill="#565655"/>
<path d="M175.883 54.6446V45.3871H177.844V53.0236H181.594V54.6446H175.883Z" fill="#2F65B0"/>
<path d="M183.201 54.6446V45.3871H185.162V54.6446H183.201Z" fill="#2F65B0"/>
<path d="M187.489 45.3871H190.368C191.679 45.3871 192.631 45.5731 193.223 45.9472C193.816 46.3212 194.113 46.9146 194.113 47.7305C194.113 48.283 193.982 48.7356 193.722 49.0914C193.464 49.4451 193.119 49.659 192.689 49.731V49.7944C193.276 49.9245 193.697 50.1706 193.958 50.5286C194.216 50.8876 194.346 51.3649 194.346 51.9604C194.346 52.8043 194.042 53.4621 193.431 53.9351C192.823 54.4081 191.995 54.6446 190.949 54.6446H187.489V45.3871ZM189.451 49.0527H190.589C191.121 49.0527 191.505 48.971 191.744 48.8065C191.982 48.6421 192.102 48.368 192.102 47.9885C192.102 47.6348 191.971 47.3811 191.712 47.2253C191.453 47.0716 191.042 46.9952 190.481 46.9952H189.451V49.0527ZM189.451 50.6103V53.0236H190.728C191.267 53.0236 191.666 52.9204 191.924 52.7129C192.182 52.5065 192.309 52.1905 192.309 51.7626C192.309 50.9951 191.761 50.6103 190.665 50.6103H189.451Z" fill="#2F65B0"/>
<path d="M201.518 54.6446H196.193V45.3871H201.518V46.9952H198.154V49.028H201.286V50.6361H198.154V53.0236H201.518V54.6446Z" fill="#2F65B0"/>
<path d="M205.409 51.0908V54.6446H203.449V45.3871H206.143C207.399 45.3871 208.33 45.615 208.932 46.074C209.535 46.533 209.837 47.2274 209.837 48.1605C209.837 48.7055 209.687 49.1892 209.387 49.6127C209.089 50.0374 208.664 50.3695 208.116 50.6103C209.508 52.6914 210.414 54.0372 210.836 54.6446H208.66L206.453 51.0908H205.409ZM205.409 49.4956H206.042C206.662 49.4956 207.119 49.3935 207.414 49.1871C207.71 48.9796 207.857 48.655 207.857 48.211C207.857 47.7724 207.706 47.4596 207.404 47.2737C207.103 47.0877 206.636 46.9952 206.004 46.9952H205.409V49.4956Z" fill="#2F65B0"/>
<path d="M217.326 54.6446H212V45.3871H217.326V46.9952H213.961V49.028H217.091V50.6361H213.961V53.0236H217.326V54.6446Z" fill="#2F65B0"/>
<path d="M223.183 46.8867C222.443 46.8867 221.873 47.1662 221.468 47.7198C221.064 48.2744 220.861 49.0484 220.861 50.0406C220.861 52.1056 221.634 53.1375 223.183 53.1375C223.832 53.1375 224.618 52.9752 225.541 52.6495V54.2963C224.782 54.6124 223.935 54.7714 222.999 54.7714C221.654 54.7714 220.626 54.363 219.912 53.546C219.2 52.729 218.844 51.5563 218.844 50.0277C218.844 49.0645 219.019 48.2218 219.368 47.4983C219.718 46.7749 220.221 46.2191 220.877 45.8321C221.533 45.4462 222.302 45.2527 223.183 45.2527C224.081 45.2527 224.983 45.471 225.89 45.9063L225.258 47.5015C224.91 47.3371 224.564 47.193 224.213 47.0716C223.864 46.9479 223.519 46.8867 223.183 46.8867Z" fill="#2F65B0"/>
</g>
<defs>
<clipPath id="clip0_19_18">
<rect width="226" height="60" fill="white"/>
</clipPath>
</defs>
</svg>
