<?xml version="1.0" encoding="UTF-8" standalone="no"?>
<!-- Created with Inkscape (http://www.inkscape.org/) -->

<svg
   width="40"
   height="40"
   viewBox="0 0 10.583333 10.583333"
   version="1.1"
   id="svg911"
   xml:space="preserve"
   sodipodi:docname="web_icon_v3.svg"
   inkscape:version="1.2.2 (732a01da63, 2022-12-09)"
   xmlns:inkscape="http://www.inkscape.org/namespaces/inkscape"
   xmlns:sodipodi="http://sodipodi.sourceforge.net/DTD/sodipodi-0.dtd"
   xmlns="http://www.w3.org/2000/svg"
   xmlns:svg="http://www.w3.org/2000/svg"><sodipodi:namedview
     id="namedview913"
     pagecolor="#ffffff"
     bordercolor="#666666"
     borderopacity="1.0"
     inkscape:showpageshadow="2"
     inkscape:pageopacity="0.0"
     inkscape:pagecheckerboard="0"
     inkscape:deskcolor="#d1d1d1"
     inkscape:document-units="mm"
     showgrid="false"
     inkscape:zoom="8.1033962"
     inkscape:cx="-6.1702524"
     inkscape:cy="8.2681383"
     inkscape:window-width="1920"
     inkscape:window-height="1017"
     inkscape:window-x="-8"
     inkscape:window-y="-8"
     inkscape:window-maximized="1"
     inkscape:current-layer="layer1" /><defs
     id="defs908" /><g
     inkscape:label="Layer 1"
     inkscape:groupmode="layer"
     id="layer1"><path
       id="path565"
       style="fill:#ffffff;stroke-width:0.0161273"
       d="M 5.3511884,4.2045533e-4 C 4.2690344,-0.01059122 3.1960865,0.28771672 2.2808224,0.87656921 1.1387201,1.6113625 0.33681853,2.7087 0.00242659,3.9688767 H 1.4129226 c 0.05542,-0.1479611 0.1216126,-0.294797 0.2045387,-0.454427 0.1584,-0.3049151 0.2996446,-0.5189471 0.3354333,-0.5082428 0.062945,0.018826 0.7493127,0.1214697 1.0734262,0.1605179 0.1982555,0.023885 0.3654666,0.047585 0.3715782,0.052695 0.00611,0.00511 -0.00658,0.080731 -0.028216,0.1680379 C 3.33601,3.5233162 3.294072,3.7498721 3.2590758,3.9688767 H 4.142156 c 0.00525,-0.029765 0.010009,-0.059616 0.015661,-0.08931 0.03802,-0.1997758 0.1276517,-0.5744192 0.1403188,-0.5865329 0.00342,-0.00327 0.1167956,0.00123 0.2519699,0.010008 0.1351743,0.00878 0.5959959,0.017065 1.0240198,0.018431 l 0.778229,0.00249 0.02816,0.1269924 c 0.036994,0.1667819 0.068829,0.3405505 0.095257,0.5179231 H 7.358203 C 7.331877,3.7730197 7.299544,3.5817602 7.260519,3.3976297 7.243199,3.31591 7.229029,3.2462584 7.229029,3.2428543 c 0,-0.0034 0.021807,-0.00621 0.048448,-0.00621 0.089681,0 0.6781287,-0.081441 0.9919938,-0.1373016 0.171222,-0.030473 0.3334264,-0.059075 0.360461,-0.063551 0.046866,-0.00776 0.053605,-0.00125 0.1448339,0.1400088 0.158342,0.2451718 0.290167,0.5131543 0.3920908,0.7930732 H 10.583334 C 10.455624,3.4901882 10.264782,3.0393229 10.012606,2.6231515 9.3415988,1.5157789 8.2784463,0.67653966 7.037977,0.27502364 6.4874166,0.09681792 5.9180317,0.00618847 5.3511884,4.2045533e-4 Z M 5.2298589,1.3159015 H 5.4032192 5.576579 l 0.1445794,0.2896979 c 0.1331447,0.2668071 0.3431588,0.7537668 0.3696875,0.8571983 l 0.011173,0.043671 -0.6203035,-0.00325 c -0.341165,-0.00178 -0.681526,-0.00564 -0.756361,-0.00859 C 4.5616736,2.4881779 4.5597014,2.522064 4.7454994,2.1492822 4.8786552,1.8821227 5.0220578,1.6302995 5.1590352,1.4230686 Z m -1.1478601,0.176515 c 0.00537,-2.54e-4 0.00894,3.546e-4 0.010525,0.00189 0.0046,0.00446 -0.039473,0.1008897 -0.097938,0.2142791 -0.087992,0.170655 -0.2696104,0.5663284 -0.3097564,0.6748588 -0.00798,0.021574 -0.027756,0.027364 -0.088599,0.025978 C 3.4654852,2.4064404 2.6644335,2.3035797 2.6283607,2.2851345 2.5882517,2.2646253 2.9822926,1.9871995 3.3022466,1.8106906 3.5170689,1.6921794 4.0014274,1.4962297 4.0819988,1.4924165 Z m 2.5732827,0.046077 0.094355,0.032705 c 0.3199061,0.1108909 0.8267949,0.3937929 1.1303381,0.6308599 0.1088803,0.085039 0.1300157,0.10814 0.1069388,0.1169566 -0.034621,0.013227 -0.4225116,0.067478 -0.7168309,0.1002485 -0.1170951,0.013038 -0.2243164,0.023709 -0.2382848,0.023709 -0.017478,0 -0.039828,-0.04332 -0.071669,-0.138915 C 6.9189372,2.180386 6.7514232,1.7557049 6.6815504,1.5978333 Z M 0,6.6147146 C 0.04916991,6.8009232 0.10825853,6.9848734 0.17841057,7.1654527 0.27331237,7.40974 0.47739012,7.8157059 0.61621199,8.0363511 1.5250282,9.4808339 3.0827427,10.420118 4.8173957,10.569608 v -2.8e-5 c 0.2129317,0.01837 0.7059661,0.01854 0.9288183,3.18e-4 C 7.4310288,10.432232 8.9307347,9.565208 9.8669539,8.1876156 10.192785,7.7081744 10.434054,7.1757894 10.583277,6.614704 H 9.1672786 C 9.0601752,6.9112403 8.9189465,7.1940362 8.7448829,7.4501081 8.6940419,7.5249021 8.6436734,7.5851621 8.6329785,7.5840191 8.6222815,7.5828708 8.5508605,7.5689521 8.4742629,7.5530914 8.2787934,7.5126143 7.6477437,7.4163403 7.4420317,7.3956086 7.1764096,7.3688396 7.1979494,7.3816878 7.2231874,7.2650065 7.2562494,7.1121576 7.3006484,6.8510031 7.3356571,6.614704 H 6.4543829 c -0.027644,0.1797443 -0.059626,0.3546372 -0.09633,0.5225446 l -0.035467,0.162268 -0.6076908,-0.00353 c -0.3342301,-0.00195 -0.7783565,0.00237 -0.986944,0.00957 l -0.3792529,0.0131 -0.066534,-0.2670833 C 4.2456502,6.905003 4.2135332,6.7594228 4.1852422,6.6147019 H 3.2979291 c 0.028123,0.1567266 0.060723,0.3163583 0.099575,0.4848081 0.035937,0.155809 0.062117,0.2864074 0.058182,0.2902175 -0.00393,0.00381 -0.098471,0.017571 -0.2100691,0.030572 -0.3057443,0.035618 -0.6453121,0.082996 -0.9673053,0.1349772 -0.1590861,0.025682 -0.3002741,0.046706 -0.3137352,0.046706 -0.030766,0 -0.1944323,-0.243537 -0.3220306,-0.4791745 C 1.5520849,6.9557538 1.477079,6.7884016 1.4136285,6.6147019 Z M 5.5095373,8.1099651 H 6.0953041 L 6.0621221,8.2171045 C 6.0107081,8.3832122 5.8451558,8.8174028 5.7475971,9.0420078 l -0.088148,0.2029308 -0.071302,0.010747 c -0.039226,0.0059 -0.1544267,0.01125 -0.2559769,0.011895 L 5.1475524,9.2687553 5.0184915,9.0106414 C 4.900078,8.7737931 4.6982676,8.3256235 4.6478732,8.1876252 l -0.020907,-0.057262 0.1484167,-0.0102 c 0.081634,-0.00561 0.4119975,-0.0102 0.7341552,-0.0102 z m 1.4819111,0.061117 0.1228815,0.00995 c 0.1378225,0.011182 0.5460466,0.061682 0.745526,0.092236 L 7.9909199,8.2933671 7.8464251,8.404062 C 7.614285,8.5819139 7.3856961,8.7221194 7.1225405,8.8480463 6.8412127,8.9826686 6.7002665,9.0375792 6.7078484,9.0096307 6.7106284,8.9993595 6.7755754,8.8064877 6.8521739,8.581018 Z m -3.2752435,0.017993 0.083971,0.2183809 c 0.046189,0.1201177 0.1287663,0.320208 0.1834893,0.4446374 0.054723,0.1244289 0.09949,0.2297823 0.09949,0.2341321 0,0.012226 -0.0152,0.00815 -0.1540319,-0.041319 C 3.4931566,8.8895505 3.0651902,8.6608699 2.7477987,8.4136912 l -0.1146985,-0.089311 0.131064,-0.01936 C 2.8748386,8.2886675 3.383014,8.2263454 3.6416011,8.1974158 Z" /><g
       aria-label="WWW"
       transform="matrix(0.056524,0,0,0.05305112,-0.37795705,1.1965506e-4)"
       id="text1388"
       style="font-weight:800;font-size:60.0826px;line-height:1.25;font-family:'Open Sans';-inkscape-font-specification:'Open Sans Ultra-Bold';text-align:center;text-anchor:middle;fill:#ffffff;stroke-width:0.261988"><path
         d="M 68.129718,78.301104 57.568324,121.1921 H 43.867848 l -4.107209,-18.6878 q -0.117349,-0.52807 -0.381384,-1.78957 -0.234697,-1.2615 -0.557406,-2.875046 -0.293373,-1.613547 -0.557407,-3.168418 -0.234698,-1.58421 -0.352047,-2.669686 -0.117349,1.085476 -0.381384,2.669686 -0.264034,1.554871 -0.586744,3.168418 -0.293372,1.613546 -0.586744,2.875046 -0.264035,1.2615 -0.381384,1.78957 l -4.136546,18.6878 H 18.139118 L 7.5190488,78.301104 H 18.696525 l 4.664615,21.504173 q 0.176024,0.792103 0.469396,2.258963 0.322709,1.43752 0.645418,3.16842 0.352047,1.70156 0.645419,3.28577 0.293372,1.58421 0.410721,2.64035 0.234697,-1.81891 0.616081,-4.13655 0.410721,-2.31764 0.880116,-4.69395 0.498733,-2.405654 0.938791,-4.459259 0.440058,-2.053604 0.762767,-3.344442 l 3.7845,-16.223475 h 10.737418 l 3.667151,16.223475 q 0.293372,1.2615 0.73343,3.344442 0.469395,2.053605 0.93879,4.459259 0.498733,2.40565 0.909454,4.75262 0.410721,2.31764 0.616081,4.07788 0.176023,-1.46686 0.586744,-3.69649 0.410721,-2.25897 0.821442,-4.37125 0.440058,-2.14161 0.674756,-3.227089 l 4.752627,-21.562847 z"
         id="path1447"
         style="fill:#ffffff" /><path
         d="M 130.5593,78.301104 119.9979,121.1921 h -13.70048 l -4.1072,-18.6878 q -0.11735,-0.52807 -0.38139,-1.78957 -0.2347,-1.2615 -0.5574,-2.875046 -0.29338,-1.613547 -0.55741,-3.168418 -0.2347,-1.58421 -0.35205,-2.669686 -0.11735,1.085476 -0.381382,2.669686 -0.264035,1.554871 -0.586744,3.168418 -0.293372,1.613546 -0.586744,2.875046 -0.264035,1.2615 -0.381384,1.78957 L 94.26917,121.1921 H 80.568695 L 69.948626,78.301104 h 11.177475 l 4.664616,21.504173 q 0.176024,0.792103 0.469396,2.258963 0.322709,1.43752 0.645418,3.16842 0.352047,1.70156 0.645419,3.28577 0.293372,1.58421 0.410721,2.64035 0.234697,-1.81891 0.616081,-4.13655 0.410721,-2.31764 0.880116,-4.69395 0.498733,-2.405654 0.938791,-4.459259 0.440058,-2.053604 0.762767,-3.344442 l 3.7845,-16.223475 h 10.737414 l 3.66715,16.223475 q 0.29338,1.2615 0.73343,3.344442 0.4694,2.053605 0.9388,4.459259 0.49873,2.40565 0.90945,4.75262 0.41072,2.31764 0.61608,4.07788 0.17602,-1.46686 0.58674,-3.69649 0.41073,-2.25897 0.82145,-4.37125 0.44005,-2.14161 0.67475,-3.227089 l 4.75263,-21.562847 z"
         id="path1449"
         style="fill:#ffffff" /><path
         d="M 192.98887,78.301104 182.42748,121.1921 H 168.727 l -4.10721,-18.6878 q -0.11735,-0.52807 -0.38138,-1.78957 -0.2347,-1.2615 -0.55741,-2.875046 -0.29337,-1.613547 -0.5574,-3.168418 -0.2347,-1.58421 -0.35205,-2.669686 -0.11735,1.085476 -0.38138,2.669686 -0.26404,1.554871 -0.58675,3.168418 -0.29337,1.613546 -0.58674,2.875046 -0.26404,1.2615 -0.38139,1.78957 l -4.13654,18.6878 H 142.99827 L 132.3782,78.301104 h 11.17748 l 4.66461,21.504173 q 0.17603,0.792103 0.4694,2.258963 0.32271,1.43752 0.64542,3.16842 0.35204,1.70156 0.64542,3.28577 0.29337,1.58421 0.41072,2.64035 0.2347,-1.81891 0.61608,-4.13655 0.41072,-2.31764 0.88012,-4.69395 0.49873,-2.405654 0.93879,-4.459259 0.44005,-2.053604 0.76276,-3.344442 l 3.7845,-16.223475 h 10.73742 l 3.66715,16.223475 q 0.29337,1.2615 0.73343,3.344442 0.4694,2.053605 0.93879,4.459259 0.49873,2.40565 0.90946,4.75262 0.41072,2.31764 0.61608,4.07788 0.17602,-1.46686 0.58674,-3.69649 0.41072,-2.25897 0.82144,-4.37125 0.44006,-2.14161 0.67476,-3.227089 l 4.75263,-21.562847 z"
         id="path1451"
         style="fill:#ffffff" /></g></g></svg>
