<svg width="40" height="40" viewBox="0 0 40 40" fill="none" xmlns="http://www.w3.org/2000/svg">
<g clip-path="url(#clip0_40_3)">
<path d="M21.3903 24.0477L27.6864 30.1923C36.6713 24.5091 35.9597 15.5541 32.0974 10.1048C30.0203 7.17427 26.4472 4.94157 21.3208 4.64172L21.3903 1.86794L21.4598 0.00992458C26.3902 -0.176994 31.3994 2.30155 34.5536 5.31809C41.8308 12.5082 41.8664 24.4053 34.3533 31.5146C33.5233 32.3 31.4697 33.8361 31.4697 33.8361L37.2959 39.6985L21.3903 40L21.3903 24.0477ZM5.8651 8.09952C3.9448 6.30675 0 2.36817 0 2.36817L15.9056 2.06666V10.0428V18.0189L8.86722 12.0359C4.16099 21.5155 10.709 29.1184 16.5118 31.1284L15.4015 33.6227L14.5808 35.5332C3.58648 30.9278 -0.74708 18.4667 5.8651 8.09952Z" fill="white"/>
</g>
<defs>
<clipPath id="clip0_40_3">
<rect width="40" height="40" fill="white"/>
</clipPath>
</defs>
</svg>
