<svg width="40" height="40" viewBox="0 0 40 40" fill="none" xmlns="http://www.w3.org/2000/svg">
<g clip-path="url(#clip0_40_19)">
<path d="M23.8693 34.5803L22.994 31.8075C22.7007 31.9219 22.4574 32.2262 22.2124 32.4235C21.6547 32.8725 20.9725 33.3795 20.2743 33.572C20.9234 32.4509 21.2921 31.0516 21.5625 29.7909C21.6683 29.2976 21.844 28.7889 21.8031 28.2784C21.7601 27.7417 21.464 27.1496 21.2955 26.6399C21.1571 26.2214 21.017 25.8019 20.8907 25.3795C20.8305 25.178 20.7878 24.9273 20.5864 24.8175C20.4131 24.7231 20.1823 24.7493 19.9929 24.7493H18.8362C17.408 24.7493 15.9782 24.7808 14.5535 24.7808L14.1783 18.6679H21.1496L21.2125 19.4523L21.6185 19.6657L22.7439 20.0228V18.6994H27.9019L27.6206 21.6298C28.0352 21.8501 28.6851 22.0929 29.1524 22.134C29.2926 21.0155 29.4642 19.8267 29.465 18.6994H33.8103C33.8103 19.7903 33.5883 20.9242 33.3139 21.9764C33.192 22.4432 32.9734 22.9191 32.9037 23.3944L34.373 23.867C34.8178 22.4888 35.1974 21.1262 35.3368 19.6762C35.7563 15.3107 34.5925 10.8357 32.0009 7.29292C28.6058 2.65225 22.8586 -0.238027 17.1169 0.0154168C14.1133 0.147998 11.2454 0.999594 8.6451 2.52158C7.22759 3.35128 5.87476 4.42825 4.77403 5.65442C3.15958 7.45286 1.87792 9.48445 1.0503 11.7673C-1.40086 18.5284 0.537262 26.3125 5.83159 31.1404C7.44173 32.6088 9.28823 33.7315 11.3023 34.5362C13.2781 35.3259 15.4345 35.7147 17.5545 35.7147C19.7364 35.7147 21.827 35.3744 23.8693 34.5803ZM20.5869 9.37256L18.1172 9.49857L14.8035 9.37256C14.8588 8.66804 15.0351 7.95374 15.1724 7.26141C15.4417 5.90423 15.7601 4.50674 16.3744 3.25968C16.5951 2.81147 16.8475 2.39531 17.1519 1.99929C17.2765 1.83713 17.4317 1.63311 17.6483 1.60165C17.8816 1.56776 18.0646 1.7772 18.202 1.93627C18.5319 2.31834 18.7815 2.74345 19.0006 3.19666C19.6328 4.50434 19.9737 5.9363 20.2555 7.35594C20.3844 8.00536 20.5814 8.70875 20.5869 9.37256ZM15.0224 2.18835L13.8461 6.00102L13.178 9.24652L9.3641 8.55331C10.41 6.02125 12.4043 3.21216 15.0224 2.18835ZM20.368 2.18835C21.0208 2.57239 21.6749 2.90119 22.275 3.37507C23.4801 4.32675 24.4376 5.58251 25.1954 6.9148C25.4855 7.42485 25.8641 7.98569 26.0263 8.55331L23.7442 8.9763L22.1812 9.24652C21.9754 7.61344 21.636 5.93117 21.1388 4.36252C20.9738 3.84188 20.795 3.32579 20.5931 2.81854C20.5238 2.64442 20.3374 2.37362 20.368 2.18835ZM10.9897 3.13364C10.7611 3.48192 10.4506 3.77918 10.1972 4.11044C9.60682 4.88243 9.04533 5.69749 8.60621 6.5682C8.42677 6.92397 8.24474 7.27849 8.07555 7.63953C8.01631 7.76594 7.97183 7.97312 7.82902 8.03003C7.6343 8.1076 7.32538 7.92838 7.14456 7.86177C6.60731 7.66388 6.04448 7.4228 5.48772 7.29292C5.79408 6.75871 6.37501 6.27002 6.83195 5.866C7.71911 5.08163 8.64925 4.37559 9.67671 3.78649C10.0815 3.55439 10.5413 3.26384 10.9897 3.13364ZM24.432 3.13364C24.9578 3.44291 25.53 3.67239 26.0576 3.98475C27.0442 4.56891 27.9415 5.27652 28.7773 6.06124C29.1679 6.42795 29.6063 6.80981 29.9027 7.26141C29.403 7.52688 28.8094 7.67885 28.2771 7.8698C28.0927 7.93597 27.8177 8.07127 27.6211 7.99423C27.3609 7.89227 27.2139 7.37125 27.0969 7.13537C26.7301 6.396 26.3176 5.67083 25.8475 4.99271C25.5304 4.53541 25.1934 4.08983 24.8294 3.6693C24.7132 3.53498 24.4281 3.31835 24.432 3.13364ZM7.26961 9.59313C7.09436 10.3567 6.80807 11.0951 6.63347 11.8618C6.24393 13.5729 6.0312 15.3108 5.95664 17.0609H1.58008C1.76071 14.7539 2.29249 12.5843 3.32298 10.5069C3.56935 10.0103 3.84013 9.52138 4.14358 9.05746C4.22196 8.93763 4.34525 8.64859 4.49312 8.61044C4.69303 8.55888 5.11012 8.80192 5.30015 8.87446C5.94535 9.12077 6.60428 9.41009 7.26961 9.59313ZM33.8103 17.0609H29.4338C29.4338 15.3216 29.1792 13.5198 28.7656 11.8303C28.6362 11.3017 28.4991 10.7749 28.3388 10.2548C28.2927 10.1053 28.1157 9.79107 28.1739 9.63784C28.2285 9.49369 28.643 9.42036 28.7773 9.37089C29.278 9.18631 29.7795 9.00229 30.2778 8.81144C30.4354 8.75107 30.7314 8.57707 30.9002 8.61409C31.1084 8.65974 31.2957 9.10946 31.4017 9.27803C32.8143 11.5273 33.8103 14.3741 33.8103 17.0609ZM12.9591 10.822L12.6153 17.0609H7.55096C7.55096 15.4755 7.77832 13.8462 8.14129 12.303C8.3187 11.5487 8.59752 10.8178 8.77014 10.0658L10.3019 10.3301L12.9591 10.822ZM27.8707 17.0609H22.8064L22.5848 13.3113L22.4313 10.822C23.4357 10.6934 24.4357 10.4542 25.4323 10.273C25.7035 10.2237 25.9737 10.1686 26.2451 10.1209C26.3392 10.1044 26.4833 10.0458 26.5759 10.086C26.6888 10.1351 26.7209 10.3701 26.7557 10.4754C26.8868 10.8718 26.9983 11.2711 27.1114 11.6728C27.595 13.3903 27.8561 15.2783 27.8707 17.0609ZM20.8682 11.0111L21.2121 17.0609H14.1783L14.4569 12.5235L14.521 11.4207L14.5723 11.0435L15.0224 11.0111H16.2103L20.8682 11.0111ZM5.95664 18.6679C5.96149 20.4434 6.23874 22.3017 6.66398 24.0246C6.78919 24.5319 6.91945 25.0404 7.08207 25.537C7.12825 25.6781 7.29683 25.9848 7.23172 26.1286C7.16044 26.2861 6.79272 26.3453 6.64438 26.4012C6.1453 26.5893 5.64315 26.7689 5.14385 26.9566C4.97069 27.0216 4.70725 27.1774 4.51909 27.1299C4.28345 27.0703 4.10319 26.6453 3.98718 26.4508C2.60453 24.133 1.61134 21.4029 1.61134 18.6679H5.95664ZM12.6153 18.6994L12.9591 24.9384L8.77014 25.6946C8.59752 24.9425 8.3187 24.2116 8.14129 23.4574C7.7786 21.9154 7.55096 20.2836 7.55096 18.6994H12.6153ZM21.8998 21.9134L22.3271 23.2683L23.1708 25.8521L26.0472 34.7064L27.0267 37.6998L27.2544 38.393L27.3985 38.5934L27.611 38.33L28.0973 37.3847L30.0902 33.5405L36.4675 40H36.4987L40 36.4709V36.4394C38.5679 34.9959 37.1187 33.5667 35.686 32.1226C35.0285 31.46 34.1889 30.8082 33.654 30.0429L35.1233 29.2945L38.6245 27.4591C38.2419 27.1705 37.5485 27.0766 37.0927 26.9235C35.9173 26.5286 34.7356 26.1525 33.5602 25.7576C31.1364 24.9432 28.7001 24.1667 26.2764 23.3524C24.8405 22.8699 23.3736 22.2571 21.8998 21.9134ZM20.6181 26.3248C20.36 28.3725 19.9118 30.4831 19.0819 32.3747C18.878 32.8394 18.6073 33.2887 18.3084 33.6981C18.1763 33.8789 18.0362 34.0765 17.8046 34.1269C17.5447 34.1836 17.3475 34.0182 17.1956 33.8241C16.8935 33.4384 16.6606 32.9944 16.43 32.5637C15.7397 31.2753 15.3939 29.7382 15.1283 28.3099C15.0077 27.6615 14.8348 26.9863 14.8348 26.3248H20.6181ZM15.0536 33.5405C14.4161 33.3218 13.8059 32.8854 13.2717 32.4808C11.5583 31.1836 10.1861 29.1971 9.3641 27.2071C10.2648 26.92 11.2802 26.857 12.2089 26.6776C12.4046 26.6398 13.0265 26.4209 13.1905 26.5464C13.2955 26.6266 13.2904 26.9268 13.3107 27.0495C13.3873 27.5126 13.468 27.9755 13.5593 28.4359C13.7871 29.5839 14.0405 30.727 14.4082 31.839C14.5977 32.4118 14.8897 32.9626 15.0536 33.5405ZM7.86357 27.6482C8.35037 28.8441 9.00688 30.0102 9.76687 31.0512C10.1657 31.5976 10.6678 32.0766 11.0522 32.6267C10.475 32.5483 9.91108 32.1566 9.42663 31.8522C8.48495 31.2611 7.59638 30.5719 6.76943 29.8276C6.32727 29.4296 5.81562 28.9922 5.51898 28.4674C6.27188 28.2107 7.07785 27.7668 7.86357 27.6482Z" fill="white"/>
</g>
<defs>
<clipPath id="clip0_40_19">
<rect width="40" height="40" fill="white"/>
</clipPath>
</defs>
</svg>
